<svg width="23" height="23" viewBox="0 0 23 23" fill="none" xmlns="http://www.w3.org/2000/svg">
<path d="M17.0612 11.6302C16.9945 11.5621 16.9149 11.5078 16.827 11.4707C16.7392 11.4336 16.6448 11.4144 16.5494 11.4141C16.454 11.4139 16.3595 11.4326 16.2715 11.4692C16.1834 11.5058 16.1035 11.5596 16.0364 11.6275C15.9693 11.6953 15.9164 11.7758 15.8808 11.8642C15.8451 11.9527 15.8275 12.0474 15.8288 12.1428C15.8301 12.2381 15.8504 12.3323 15.8884 12.4198C15.9265 12.5072 15.9816 12.5862 16.0505 12.6522C16.6603 13.2522 17.1441 13.968 17.4735 14.7576C17.8029 15.5471 17.9713 16.3945 17.9688 17.25C17.9688 18.1291 15.4489 19.4063 11.5 19.4063C7.55115 19.4063 5.03128 18.1285 5.03128 17.2486C5.02886 16.3989 5.195 15.5573 5.52006 14.7723C5.84513 13.9873 6.32267 13.2746 6.92505 12.6754C6.99318 12.609 7.04744 12.5297 7.08469 12.4421C7.12194 12.3545 7.14143 12.2605 7.14203 12.1653C7.14263 12.0701 7.12434 11.9758 7.0882 11.8878C7.05207 11.7998 6.99881 11.7198 6.93153 11.6525C6.86424 11.5852 6.78427 11.532 6.69624 11.4958C6.60822 11.4597 6.51389 11.4414 6.41874 11.442C6.32359 11.4426 6.2295 11.4621 6.14194 11.4994C6.05438 11.5366 5.97509 11.5909 5.90866 11.659C5.17225 12.3915 4.58846 13.2629 4.19111 14.2226C3.79376 15.1823 3.59073 16.2113 3.59378 17.25C3.59378 19.5842 7.66694 20.8438 11.5 20.8438C15.3331 20.8438 19.4063 19.5842 19.4063 17.25C19.4095 16.2043 19.2037 15.1685 18.801 14.2034C18.3983 13.2384 17.8068 12.3635 17.0612 11.6302Z" fill="#4E68EE"/>
<path d="M11.5 12.2188C12.4951 12.2188 13.4678 11.9237 14.2952 11.3708C15.1226 10.818 15.7675 10.0322 16.1483 9.11288C16.5291 8.19354 16.6287 7.18192 16.4346 6.20595C16.2404 5.22999 15.7613 4.3335 15.0576 3.62987C14.354 2.92624 13.4575 2.44706 12.4815 2.25293C11.5056 2.05879 10.494 2.15843 9.57462 2.53923C8.65528 2.92004 7.86951 3.5649 7.31667 4.39229C6.76383 5.21967 6.46875 6.19242 6.46875 7.1875C6.47029 8.5214 7.00086 9.80022 7.94407 10.7434C8.88728 11.6866 10.1661 12.2172 11.5 12.2188ZM11.5 3.59375C12.2108 3.59375 12.9056 3.80452 13.4966 4.19941C14.0876 4.5943 14.5482 5.15556 14.8202 5.81223C15.0922 6.46891 15.1634 7.19149 15.0247 7.88861C14.886 8.58573 14.5438 9.22607 14.0412 9.72867C13.5386 10.2313 12.8982 10.5735 12.2011 10.7122C11.504 10.8509 10.7814 10.7797 10.1247 10.5077C9.46806 10.2357 8.90679 9.77507 8.51191 9.18408C8.11702 8.59309 7.90625 7.89828 7.90625 7.1875C7.90737 6.23473 8.28636 5.32129 8.96007 4.64758C9.63379 3.97386 10.5472 3.59487 11.5 3.59375Z" fill="#4E68EE"/>
</svg>
