<svg id="b226f3eb-4af9-492b-be50-c892ea92d21f" data-name="Calque 1" xmlns="http://www.w3.org/2000/svg" viewBox="0 0 18 18"><defs><style>.a94c3883-ac3f-49e1-8ee9-49d4272fd876{fill:none;}.b59e9301-7b54-40c5-8809-6c3b1d949d16{fill:#313936;}</style></defs><path class="a94c3883-ac3f-49e1-8ee9-49d4272fd876" d="M0,0H18V18H0Z"/><path class="b59e9301-7b54-40c5-8809-6c3b1d949d16" d="M1.13,3.65l-.35.14h0V13.89l.38.15h0l8.06,3.16,8.06-3.16V3.6h0L9.19.46,1.13,3.65m1.22.46L9.19,1.39l2.31.83-7,2.72Zm13.76,0L9.19,6.81l-2.55-1L13.51,3ZM9.48,16.18V7.62l6.81-2.69V13.5ZM5.88,15,4.37,14.4,1.71,13.35V4.78L4,5.67V7.89l.24-.07L4.34,8h0l.22,0,0,0,.13.17,0,0,0,0L5,8.15l.2.22h0l.11,0h0l.08,0,.3.29V6.34l.23.1,2.63,1V16Z"/></svg>