<svg id="f52ca1f4-79b9-4471-abc8-e00152ce52bf" data-name="Calque 1" xmlns="http://www.w3.org/2000/svg" viewBox="0 0 18 18"><defs><style>.ad3bad47-d89c-478c-8e69-348719778996{fill:none;}.f0cc344c-6275-4d07-83b1-ab7b4717d33b{fill:#313936;}</style></defs><path class="ad3bad47-d89c-478c-8e69-348719778996" d="M0,0H18V18H0Z"/><path class="f0cc344c-6275-4d07-83b1-ab7b4717d33b" d="M8.52,15.29v.91L5.88,15.13l-1.51-.57L1.71,13.51V5L4,5.84V8.05L4.2,8l.14.22h0l.22-.06,0,0,.13.17,0,0,0,0L5,8.32l.2.22.11,0,.08,0,.3.3V6.51l.23.09,2.63,1v3.05a5.09,5.09,0,0,1,1-1.3V7.79L16.29,5.1V9.3a5,5,0,0,1,1,1.18V3.77L9.19.63,1.13,3.82.78,4h0V14.06l.38.15h0l8.06,3.16.84-.33A5.14,5.14,0,0,1,8.52,15.29Zm7.59-11L9.19,7,6.64,6l6.87-2.78ZM9.19,1.56l2.31.82-7,2.73L2.35,4.27Z"/><path class="f0cc344c-6275-4d07-83b1-ab7b4717d33b" d="M13.25,9.3a3.91,3.91,0,0,0-3.91,3.91H8L9.73,14.9l0,.06,1.76-1.75H10.21a3,3,0,1,1,3,3,3,3,0,0,1-2.14-.9l-.62.62A3.91,3.91,0,1,0,13.25,9.3Zm-.43,2.17v2.17l1.84,1.1.34-.56-1.53-.91v-1.8Z"/></svg>