<svg width="19" height="19" viewBox="0 0 19 19" fill="none" xmlns="http://www.w3.org/2000/svg">
<path d="M9.50001 4.08432C7.55504 4.08432 5.97266 5.6667 5.97266 7.61168C5.97266 9.55665 7.55504 11.139 9.50001 11.139C11.445 11.139 13.0274 9.55665 13.0274 7.61168C13.0274 5.6667 11.445 4.08432 9.50001 4.08432ZM9.50001 9.65384C8.37397 9.65384 7.45785 8.73772 7.45785 7.61168C7.45785 6.48563 8.37397 5.56951 9.50001 5.56951C10.6261 5.56951 11.5422 6.48563 11.5422 7.61168C11.5422 8.73772 10.6261 9.65384 9.50001 9.65384Z" fill="#4E68EE"/>
<path d="M9.50012 0C5.30301 0 1.88843 3.41462 1.88843 7.61169V7.8221C1.88843 9.94476 3.10539 12.4183 5.50563 15.1739C7.24561 17.1716 8.96129 18.5646 9.03343 18.6229L9.50012 19L9.96681 18.6229C10.039 18.5646 11.7547 17.1717 13.4946 15.174C15.8948 12.4183 17.1118 9.94479 17.1118 7.82214V7.61173C17.1118 3.41462 13.6972 0 9.50012 0ZM15.6266 7.82214C15.6266 11.4093 11.0046 15.7517 9.50012 17.0699C7.99522 15.7513 3.37362 11.4091 3.37362 7.82214V7.61173C3.37362 4.23359 6.12198 1.48523 9.50012 1.48523C12.8783 1.48523 15.6266 4.23359 15.6266 7.61173V7.82214Z" fill="#4E68EE"/>
</svg>
