<svg width="26" height="26" viewBox="0 0 26 26" fill="none" xmlns="http://www.w3.org/2000/svg">
<path d="M5.6875 21.9375C5.6875 23.2814 6.78112 24.375 8.125 24.375C9.46887 24.375 10.5625 23.2814 10.5625 21.9375C10.5625 20.5936 9.46887 19.5 8.125 19.5C6.78112 19.5 5.6875 20.5936 5.6875 21.9375ZM8.9375 21.9375C8.9375 22.3852 8.57269 22.75 8.125 22.75C7.67731 22.75 7.3125 22.3852 7.3125 21.9375C7.3125 21.4898 7.67731 21.125 8.125 21.125C8.57269 21.125 8.9375 21.4898 8.9375 21.9375Z" fill="#FFFFFF"/>
<path d="M20.3125 21.9375C20.3125 20.5936 19.2189 19.5 17.875 19.5C16.5311 19.5 15.4375 20.5936 15.4375 21.9375C15.4375 23.2814 16.5311 24.375 17.875 24.375C19.2189 24.375 20.3125 23.2814 20.3125 21.9375ZM17.0625 21.9375C17.0625 21.4898 17.4273 21.125 17.875 21.125C18.3227 21.125 18.6875 21.4898 18.6875 21.9375C18.6875 22.3852 18.3227 22.75 17.875 22.75C17.4273 22.75 17.0625 22.3852 17.0625 21.9375Z" fill="#FFFFFF"/>
<path d="M3.33125 2.4375C3.432 3.39706 4.55325 14.0473 4.72631 15.6926C4.85712 16.9366 5.89956 17.875 7.15081 17.875H19.812C20.9536 17.875 21.9562 17.0641 22.1959 15.9477L24.1475 6.84044C24.2507 6.35781 24.1321 5.86137 23.8217 5.47869C23.5113 5.09519 23.0506 4.875 22.5574 4.875H5.22194L4.87094 1.5405C4.82706 1.12612 4.4785 0.8125 4.0625 0.8125H1.625C1.1765 0.8125 0.8125 1.1765 0.8125 1.625C0.8125 2.0735 1.1765 2.4375 1.625 2.4375H3.33125ZM22.5574 6.5L20.6066 15.6073C20.5262 15.9794 20.1922 16.25 19.8112 16.25H7.15081C6.73319 16.25 6.38625 15.9372 6.34238 15.5228L5.39256 6.5H22.5574Z" fill="#FFFFFF"/>
</svg>
