<svg width="46" height="46" viewBox="0 0 46 46" fill="none" xmlns="http://www.w3.org/2000/svg">
<rect width="46" height="46" rx="12" fill="#E7EBFD"/>
<path d="M28.0612 23.6302C27.9945 23.5621 27.9149 23.5078 27.827 23.4707C27.7392 23.4336 27.6448 23.4144 27.5494 23.4141C27.454 23.4139 27.3595 23.4326 27.2715 23.4692C27.1834 23.5058 27.1035 23.5596 27.0364 23.6275C26.9693 23.6953 26.9164 23.7758 26.8808 23.8642C26.8451 23.9527 26.8275 24.0474 26.8288 24.1428C26.8301 24.2381 26.8504 24.3323 26.8884 24.4198C26.9265 24.5072 26.9816 24.5862 27.0505 24.6522C27.6603 25.2522 28.1441 25.968 28.4735 26.7576C28.8029 27.5471 28.9713 28.3945 28.9688 29.25C28.9688 30.1291 26.4489 31.4063 22.5 31.4063C18.5512 31.4063 16.0313 30.1285 16.0313 29.2486C16.0289 28.3989 16.195 27.5573 16.5201 26.7723C16.8451 25.9873 17.3227 25.2746 17.925 24.6754C17.9932 24.609 18.0474 24.5297 18.0847 24.4421C18.1219 24.3545 18.1414 24.2605 18.142 24.1653C18.1426 24.0701 18.1243 23.9758 18.0882 23.8878C18.0521 23.7998 17.9988 23.7198 17.9315 23.6525C17.8642 23.5852 17.7843 23.532 17.6962 23.4958C17.6082 23.4597 17.5139 23.4414 17.4187 23.442C17.3236 23.4426 17.2295 23.4621 17.1419 23.4994C17.0544 23.5366 16.9751 23.5909 16.9087 23.659C16.1722 24.3915 15.5885 25.2629 15.1911 26.2226C14.7938 27.1823 14.5907 28.2113 14.5938 29.25C14.5938 31.5842 18.6669 32.8438 22.5 32.8438C26.3331 32.8438 30.4063 31.5842 30.4063 29.25C30.4095 28.2043 30.2037 27.1685 29.801 26.2034C29.3983 25.2384 28.8068 24.3635 28.0612 23.6302Z" fill="#4E68EE"/>
<path d="M22.5 24.2188C23.4951 24.2188 24.4678 23.9237 25.2952 23.3708C26.1226 22.818 26.7675 22.0322 27.1483 21.1129C27.5291 20.1935 27.6287 19.1819 27.4346 18.206C27.2404 17.23 26.7613 16.3335 26.0576 15.6299C25.354 14.9262 24.4575 14.4471 23.4815 14.2529C22.5056 14.0588 21.494 14.1584 20.5746 14.5392C19.6553 14.92 18.8695 15.5649 18.3167 16.3923C17.7638 17.2197 17.4688 18.1924 17.4688 19.1875C17.4703 20.5214 18.0009 21.8002 18.9441 22.7434C19.8873 23.6866 21.1661 24.2172 22.5 24.2188ZM22.5 15.5938C23.2108 15.5938 23.9056 15.8045 24.4966 16.1994C25.0876 16.5943 25.5482 17.1556 25.8202 17.8122C26.0922 18.4689 26.1634 19.1915 26.0247 19.8886C25.886 20.5857 25.5438 21.2261 25.0412 21.7287C24.5386 22.2313 23.8982 22.5735 23.2011 22.7122C22.504 22.8509 21.7814 22.7797 21.1247 22.5077C20.4681 22.2357 19.9068 21.7751 19.5119 21.1841C19.117 20.5931 18.9062 19.8983 18.9062 19.1875C18.9074 18.2347 19.2864 17.3213 19.9601 16.6476C20.6338 15.9739 21.5472 15.5949 22.5 15.5938Z" fill="#4E68EE"/>
</svg>
